PathFileType	4	(X/Y/Z)	59_2_89_p1_0-557.trc
DataRate	CameraRate	NumFrames	NumMarkers	Units	OrigDataRate	OrigDataStartFrame	OrigNumFrames
52.0	52.0	6	27	m	52.0	69	558
Frame#	Time	RHip			RKnee			RAnkle			RBigToe			RSmallToe			RHeel			LHip			LKnee			LAnkle			LBigToe			LSmallToe			LHeel			Neck			Head			Nose			RShoulder			RElbow			RWrist			RThumb			RIndex			RPinky			LShoulder			LElbow			LWrist			LThumb			LIndex			LPinky			
		X1	Y1	Z1	X2	Y2	Z2	X3	Y3	Z3	X4	Y4	Z4	X5	Y5	Z5	X6	Y6	Z6	X7	Y7	Z7	X8	Y8	Z8	X9	Y9	Z9	X10	Y10	Z10	X11	Y11	Z11	X12	Y12	Z12	X13	Y13	Z13	X14	Y14	Z14	X15	Y15	Z15	X16	Y16	Z16	X17	Y17	Z17	X18	Y18	Z18	X19	Y19	Z19	X20	Y20	Z20	X21	Y21	Z21	X22	Y22	Z22	X23	Y23	Z23	X24	Y24	Z24	X25	Y25	Z25	X26	Y26	Z26	X27	Y27	Z27	
69	1.3269230769230769	0.3503907227145767	0.5112525745186752	1.0862207265259756	0.2840420193076558	0.5514187238787526	1.5064503028743246	0.29004352316390325	0.735541981092555	1.9021179636323604	0.26995933145418116	0.5269265101372002	1.9234473959897336	0.3338516832391234	0.5851061847804233	1.9264162914382759	0.28257222576924795	0.8327854209113613	1.9688512983646618	0.14787254595210567	0.5648848120840996	1.0914928743269583	0.11704190759374479	0.618744376389177	1.5099941957743375	0.12179030892739276	0.7370706398763514	1.897256046898741	0.12236227000790528	0.5296237760865372	1.920901750039902	0.06996889672934146	0.6212039142942953	1.9303126305711784	0.14405405908155572	0.8153812770333599	1.9492479127382334	0.20637198698840342	0.40663182909697937	0.5540584074565583	0.16866378950183694	0.2501112285022936	0.3147723312246199	0.1637893340743671	0.239607206225197	0.4601316569712895	0.3495918275200853	0.38989583066537764	0.6267060805268461	0.33317186530942505	0.1444949923764732	0.8093181672960462	0.14036014211635778	0.06343144702531807	0.7715373121375718	0.03408957042037762	0.1293365681896026	0.8090519912809976	0.022764977956454824	0.12064195184162314	0.822023931673705	0.05489770536782742	0.04990837136996922	0.8389905786347283	0.07993059426128894	0.4975045531474716	0.616638379735063	0.04905488773327563	0.5362981797478816	0.8354431861326884	0.007938914221448497	0.3074964719615597	0.8811039766983192	-0.005314970743086792	0.13361835233350935	0.866808032634833	-0.01910438312891183	0.1446351203376582	0.8889763808524881	-0.013398554849937077	0.19093543912208014	0.9358085332958748
70	1.3461538461538463	0.35397861522604457	0.49647679401762257	1.08389522832107	0.2842449456437237	0.549990748159199	1.5100661840118745	0.28908180674263767	0.7376807480777537	1.9071978606576694	0.2728984716240822	0.5372179608654682	1.9281662390827923	0.33337448350427373	0.5836345436129989	1.9262715072777876	0.2865864400130757	0.8485802306657325	1.9752666246836625	0.14486594257968183	0.5508535763001974	1.0895690408823704	0.12293760104273893	0.6060434834392346	1.5109095133108659	0.12178617007655802	0.7373537633112172	1.8968063421294736	0.11702794262669633	0.5423169430264289	1.9228052400190405	0.06991449496331241	0.6213257490432355	1.930366409356249	0.1440640601121448	0.8161114146806074	1.949190360916888	0.20636906169319047	0.40715251636141925	0.554488200407817	0.16849577801762206	0.2509415977629218	0.3179616289386528	0.16389623381201432	0.2400337478346109	0.46721330109492437	0.3460014593043327	0.3792280769016512	0.6265879776100987	0.32846169754988314	0.14158032008553445	0.8057102671462797	0.13646696874942518	0.07562699845967417	0.775223581411322	0.03195682168612607	0.1472644379924174	0.8103016301074609	0.02357484699660636	0.12689337752160693	0.8165352699452586	0.05028740850795055	0.06077600284414352	0.8345180973493695	0.08000892565879295	0.4974295899525373	0.6166297145379932	0.04408004123428516	0.5343421262743691	0.8313093816788367	0.004012171615895267	0.30622072702654163	0.8806472878376038	-0.009129694617782519	0.12853097897923385	0.8634197312009821	-0.024080553147518828	0.15385737398525676	0.8936065672184783	-0.030346499330277162	0.18285838293141846	0.9337562785717559
71	1.3653846153846154	0.3502943128050055	0.5108705680161696	1.0861288153073998	0.2842405131669398	0.5499901237840931	1.5100625737263984	0.2890429162061333	0.737656600574428	1.907176636624453	0.2696557574961241	0.525783979253524	1.9230814623506822	0.3335324157987152	0.5840601622433288	1.9262949361069484	0.28649101398916194	0.848376389401712	1.9752645332579795	0.14805508604764261	0.5642405537714825	1.0912326703776236	0.12093938691229945	0.6356697972058488	1.5193895243570996	0.12180132929402136	0.7373953874924374	1.896886714272301	0.11693733427090242	0.5423236848686037	1.922772796679518	0.06992516117971542	0.621559473135216	1.930296584833782	0.14418405805524828	0.8160126297220933	1.949169990567846	0.21028140910573398	0.4076139446859906	0.5542520044203508	0.16133467951665037	0.25005937920371196	0.31488254160819507	0.16064432514178212	0.22797676452793408	0.4647895015454564	0.3454421089359957	0.37740627671830623	0.6231487010161276	0.32486600936670157	0.13263099949062246	0.8017478093093623	0.1242213849049384	0.09415734718861375	0.7732531792286322	0.03381616974782193	0.15770434635436983	0.8166444161259202	0.017239633486046946	0.11599031221258804	0.8221477025027673	0.04946487404727491	0.05696027240967864	0.8321907452941695	0.08011903445982822	0.4974936114994919	0.6165707775899291	0.04414153196484894	0.5346099298639613	0.830885707065957	0.0038977455826639845	0.30669383235329223	0.8805062430763018	-0.007723101434739427	0.150958803598901	0.8682686665973535	-0.028752260514905644	0.16474171674579938	0.8947550287207089	-0.03775205510141623	0.19349910612008817	0.9395137137238504
72	1.3846153846153846	0.35432141479199203	0.49549674221311246	1.0870877937995918	0.2850147435634636	0.5485131066547069	1.5055302725297375	0.2860965111615909	0.719716153853291	1.8963903520801488	0.26898657658746183	0.5242860999517495	1.9225162228163744	0.33308836218030197	0.5830948291753816	1.9262231889343275	0.28299849530540666	0.8308584291087346	1.9731225809197632	0.14447312373542198	0.5489803304529881	1.0850981754642646	0.11717969934271275	0.61832140747748	1.5094652838733218	0.11638858493775699	0.7317575670311929	1.8900151794766984	0.11646716079247114	0.54450520382615	1.919180053947322	0.06985983652314481	0.6211617794220343	1.9302735758191776	0.14446983695728333	0.8135391687745795	1.953743865051912	0.20562888008953584	0.42134988043788285	0.5576188334986998	0.15694647659846303	0.2624200175471215	0.31696748208126185	0.16053125015798328	0.22918532105226236	0.4681495258823638	0.3454496185458489	0.37755588184248556	0.6230195730568023	0.33243836640937474	0.1434186134202891	0.8021638436419773	0.128153385546146	0.08407342718980985	0.7723018339813256	0.03719695431576367	0.1649034066581438	0.8077063460212662	0.02356180019439101	0.12462599535399443	0.8110029709985245	0.04210290267687614	0.050758805930510256	0.8213902858313612	0.08000574878429595	0.4971722516609704	0.6165714234565156	0.04145473794508765	0.5182660798584077	0.8313014995460473	0.0037290718001828666	0.30658258601997784	0.8805717902869632	-0.006829822405651164	0.15131844613285242	0.8656552395375866	-0.028965606342007223	0.16587299657298266	0.8916643013008444	-0.03944781826276923	0.19409070549253693	0.9355711730893506
73	1.4038461538461537	0.35432177618615684	0.49494578705524694	1.0871611572783912	0.2850650727037093	0.548355157756102	1.5054044832679583	0.2851679495772207	0.71681569467814	1.8906867600549278	0.2724532428749655	0.5372955986872882	1.927889784040124	0.33324867502179023	0.5840741046344954	1.9261687376557388	0.283011287130729	0.830633320059589	1.9730084746425376	0.1442920911196599	0.5483906617666215	1.085209191328676	0.12192998305761452	0.6031475219048127	1.5049797717936462	0.11642150781486664	0.7316321944249081	1.8900542872331756	0.11653936613939972	0.5445515710385154	1.9192257334471092	0.06982727467163061	0.6209685404696224	1.930247808164293	0.14433051812224695	0.8128447334163028	1.9535351376758925	0.20231977025252612	0.4080022648494826	0.5611750609929098	0.15704381480383742	0.2640936157516466	0.3203473839888156	0.15663696438195845	0.2406134800646371	0.4680550277508947	0.3450003391586446	0.3757830458227463	0.6198305037223867	0.33618690936768925	0.15386424237786792	0.8024653213657917	0.12441836928904679	0.09468273876555258	0.7670040005046679	0.040268488978528826	0.17520909755017003	0.8068732461117603	0.02329288137862848	0.12476760234606234	0.8096183332598385	0.041578129836657235	0.06426746441205589	0.8215658228725374	0.07997534673891037	0.4970048661231866	0.6165284589843205	0.04175951053876646	0.5212331755457156	0.8313011909303414	0.003900482851182692	0.3069907206158243	0.8802772398516285	-0.010853338988382187	0.15749151433096362	0.8659787191974212	-0.03363269032245319	0.17500955861341844	0.8960630331420645	-0.035823716550279494	0.19425889570648205	0.9319395165543911
74	1.4230769230769231	0.3543091537868133	0.4950738794843959	1.0870268289908869	0.28560782688414854	0.5482387338032295	1.4973890789767004	0.2851728424607727	0.7170445248336438	1.8906756451619302	0.2723988309501945	0.5368651539895519	1.9278456936872623	0.3332195019056496	0.583413422005735	1.9263244843480156	0.2830353610117059	0.8308850470089553	1.9730740983732016	0.14947286849425853	0.5519622779726258	1.089346784124882	0.1220103750030663	0.6031746244524762	1.50505460646308	0.11599348279006134	0.733326761217688	1.8863818449950414	0.11653689325534405	0.5446239777078252	1.9192444633272874	0.06982740634875079	0.6211138963063081	1.9302599867114094	0.14390305753911	0.814929861524376	1.9489137882968723	0.1982322096427206	0.40784478169897276	0.5579839551481447	0.15695487700275398	0.26382054975008107	0.3202489409603636	0.15247205015992454	0.23919203857143131	0.468464106377909	0.3449065266518985	0.37570160072862074	0.6197685750397993	0.33213927003812005	0.14216491255487934	0.7986274613078225	0.12028849491616854	0.10503415730841115	0.767482895369083	0.03784139792321521	0.16030403600893017	0.7999158351983742	0.020551405673580478	0.11757326921736448	0.8055668675368215	0.03678893559741244	0.07538227147720833	0.8196491582155911	0.07985809887333756	0.4970876192324498	0.6165845345647213	0.03660758735526128	0.5327278991935862	0.8325720885516844	-0.0005282202215598113	0.3184349562573278	0.8815383408415587	-0.017073408631162433	0.1618712660954419	0.8697693586575921	-0.03404994471713588	0.17598648962418803	0.8928296683361372	-0.03589786758524627	0.19386030038069846	0.9318457661061412
